PathFileType	4	(X/Y/Z)	C:\Users\u0088756\Documents\documenten\fwo_project_balance\Data\SyncDataCardiff_Elderly\osimData\pp_8\Static.trc
DataRate	CameraRate	NumFrames	NumMarkers	Units	OrigDataRate	OrigDataStartFrame	OrigNumFrames
200.000000	200.000000	9	49	m	200.000000	603	803
Frame#	Times	LASI			RASI			LPSI			RPSI			RKNE			RKNEmed			RTHI			RTHI2			RTHI3			RANK			RANKmed			RTIB			RTIB2			RTIB3			RHEE			RLatFoot			LKNE			LKNEmed			LTHI			LTHI2			LTHI3			LANK			LANKmed			LTIB			LTIB2			LTIB3			LTOE			LHEE			LLatFoot			Block1			Block2			Block3			Block4			CLAV			RSHO			LSHO			C7			LELB			LUA1			LWRB			LLA1			LFIN			RELB			RUA1			RWRA			RWRB			RLA1			RFIN			LWRA
		X1	Y1	Z1	X2	Y2	Z2	X3	Y3	Z3	X4	Y4	Z4	X5	Y5	Z5	X6	Y6	Z6	X7	Y7	Z7	X8	Y8	Z8	X9	Y9	Z9	X10	Y10	Z10	X11	Y11	Z11	X12	Y12	Z12	X13	Y13	Z13	X14	Y14	Z14	X15	Y15	Z15	X16	Y16	Z16	X17	Y17	Z17	X18	Y18	Z18	X19	Y19	Z19	X20	Y20	Z20	X21	Y21	Z21	X22	Y22	Z22	X23	Y23	Z23	X24	Y24	Z24	X25	Y25	Z25	X26	Y26	Z26	X27	Y27	Z27	X28	Y28	Z28	X29	Y29	Z29	X30	Y30	Z30	X31	Y31	Z31	X32	Y32	Z32	X33	Y33	Z33	X34	Y34	Z34	X35	Y35	Z35	X36	Y36	Z36	X37	Y37	Z37	X38	Y38	Z38	X39	Y39	Z39	X40	Y40	Z40	X41	Y41	Z41	X42	Y42	Z42	X43	Y43	Z43	X44	Y44	Z44	X45	Y45	Z45	X46	Y46	Z46	X47	Y47	Z47	X48	Y48	Z48	X49	Y49	Z49

603	3.015	0.16274	0.82661	-0.076075	0.15636	0.82018	0.14913	-0.061398	0.88889	-0.03899	-0.062462	0.88675	0.04883	0.045824	0.40819	0.18305	0.068416	0.38791	0.062061	0.13305	0.53583	0.082518	0.14043	0.54043	0.14734	0.14031	0.49417	0.11816	0.0034963	0.091342	0.16053	0.028784	0.094722	0.085199	0.066352	0.2372	0.14546	0.015133	0.24406	0.18748	0.038159	0.19286	0.16757	-0.065914	0.063974	0.11111	0.014588	0.030041	0.18163	0.093238	0.41364	-0.13136	0.083164	0.39522	-0.012113	0.15871	0.56588	-0.10441	0.11079	0.54883	-0.14633	0.14711	0.51082	-0.11849	0.014954	0.093261	-0.13113	0.035276	0.091236	-0.054402	0.10013	0.26338	-0.095783	0.060391	0.27082	-0.15083	0.079093	0.22488	-0.12545	0.13612	0.053159	-0.079704	-0.059226	0.054166	-0.08741	0.040111	0.021749	-0.154	0.40438	0.033609	-0.63671	-0.40675	0.023943	-0.6496	-0.32478	0.02268	0.63898	0.44018	0.03629	0.65141	0.12898	1.1914	0.044593	0.076383	1.1913	0.24014	0.061672	1.2206	-0.13745	-0.030351	1.2299	0.044787	0.063032	0.94043	-0.20678	0.085617	1.0596	-0.17824	0.14513	0.74294	-0.20261	0.14217	0.85395	-0.1949	0.20449	0.72351	-0.19386	0.07084	0.91425	0.28147	0.088239	1.0319	0.26732	0.17148	0.7413	0.2186	0.12989	0.72216	0.27538	0.13795	0.84225	0.26079	0.18946	0.68704	0.26797	0.18635	0.77406	-0.15359
604	3.02	0.16283	0.82659	-0.076042	0.15635	0.82016	0.14914	-0.061402	0.8889	-0.039015	-0.062543	0.88675	0.048833	0.045764	0.40818	0.18301	0.068419	0.38794	0.062066	0.13303	0.53583	0.082532	0.14041	0.54043	0.14733	0.14026	0.49417	0.11815	0.0035021	0.091355	0.16055	0.028765	0.094734	0.085193	0.066353	0.2372	0.14546	0.015163	0.24413	0.18749	0.038162	0.19287	0.16759	-0.065902	0.063939	0.1111	0.014469	0.030153	0.1819	0.093223	0.41368	-0.13133	0.083184	0.39522	-0.012116	0.15869	0.56587	-0.1044	0.11075	0.54882	-0.14631	0.14718	0.51084	-0.11842	0.014824	0.093116	-0.13107	0.035323	0.091233	-0.054423	0.10011	0.26337	-0.095811	0.060304	0.27079	-0.15085	0.07906	0.22491	-0.12545	0.13613	0.053159	-0.079708	-0.059246	0.054158	-0.087424	0.040089	0.021716	-0.15401	0.40437	0.033563	-0.63677	-0.4068	0.023952	-0.64956	-0.32481	0.022657	0.63898	0.44018	0.036279	0.65139	0.12906	1.1914	0.044617	0.076419	1.1913	0.24013	0.062052	1.2206	-0.13731	-0.030319	1.2299	0.044782	0.063108	0.94043	-0.20678	0.085687	1.0596	-0.17825	0.14515	0.74293	-0.20255	0.14219	0.85395	-0.19485	0.20452	0.72349	-0.19379	0.070836	0.91424	0.2815	0.088245	1.032	0.26733	0.17152	0.74135	0.21863	0.12988	0.72219	0.27538	0.13796	0.84226	0.26077	0.18945	0.68708	0.26799	0.18638	0.77407	-0.15351
605	3.025	0.16289	0.82658	-0.075981	0.15632	0.82013	0.14912	-0.061413	0.88893	-0.03903	-0.062577	0.88678	0.048824	0.045804	0.4082	0.18307	0.068401	0.38792	0.062081	0.13298	0.53582	0.08254	0.14038	0.54044	0.14732	0.14026	0.49419	0.11821	0.0034768	0.091338	0.16057	0.028598	0.094664	0.085334	0.066353	0.2372	0.14549	0.015143	0.24413	0.1875	0.038146	0.19286	0.1676	-0.065929	0.063957	0.1111	0.014499	0.03018	0.18195	0.093247	0.41365	-0.13134	0.083157	0.39519	-0.012122	0.15867	0.56586	-0.10437	0.11078	0.54882	-0.14628	0.14714	0.51082	-0.11841	0.014947	0.09326	-0.13117	0.035315	0.091251	-0.054418	0.10008	0.26336	-0.095804	0.060222	0.27077	-0.15089	0.07906	0.2249	-0.12546	0.13608	0.053151	-0.079709	-0.059247	0.054155	-0.087414	0.040127	0.021699	-0.15397	0.40437	0.033594	-0.63675	-0.40675	0.023953	-0.64955	-0.3248	0.022675	0.63897	0.4402	0.036283	0.65139	0.12912	1.1915	0.044614	0.076474	1.1913	0.24012	0.062192	1.2206	-0.13729	-0.030247	1.23	0.044712	0.063188	0.94041	-0.20674	0.085772	1.0596	-0.17823	0.14519	0.74294	-0.20245	0.14225	0.85393	-0.19481	0.20456	0.72347	-0.19367	0.070832	0.91428	0.2815	0.088239	1.032	0.26734	0.17153	0.74137	0.21861	0.12989	0.7222	0.2754	0.13797	0.8423	0.26082	0.18945	0.6871	0.26801	0.18642	0.77407	-0.15342
606	3.03	0.16271	0.82653	-0.07605	0.15632	0.82009	0.14916	-0.061456	0.88895	-0.03901	-0.06256	0.8868	0.048815	0.045758	0.40818	0.18309	0.06838	0.38794	0.062093	0.13297	0.53582	0.082551	0.14041	0.54044	0.14734	0.14022	0.49416	0.11819	0.0034606	0.091339	0.16058	0.028762	0.094731	0.085201	0.066252	0.23723	0.14549	0.015099	0.24408	0.1875	0.038146	0.19287	0.1676	-0.065926	0.063975	0.11112	0.014576	0.030026	0.18161	0.093232	0.41363	-0.13133	0.083136	0.39516	-0.012112	0.15869	0.56587	-0.10436	0.11077	0.54878	-0.14628	0.1472	0.51082	-0.11835	0.014909	0.093267	-0.13116	0.035277	0.091239	-0.054404	0.10009	0.26335	-0.095772	0.0602	0.27076	-0.15091	0.079039	0.22488	-0.12548	0.13608	0.05316	-0.079669	-0.059236	0.05416	-0.0874	0.040098	0.021705	-0.15401	0.40438	0.033571	-0.63676	-0.40677	0.023936	-0.64959	-0.32481	0.022681	0.63897	0.44022	0.036344	0.6514	0.12911	1.1915	0.044618	0.076516	1.1913	0.24011	0.062259	1.2206	-0.13732	-0.030259	1.23	0.044762	0.063251	0.94042	-0.20677	0.085846	1.0596	-0.17822	0.14524	0.74292	-0.20234	0.14234	0.85393	-0.19476	0.20455	0.72345	-0.19364	0.070821	0.9143	0.28152	0.088243	1.032	0.26735	0.17154	0.7414	0.21864	0.12992	0.72223	0.2754	0.13796	0.84231	0.26083	0.18946	0.68714	0.26805	0.18645	0.77407	-0.15334
607	3.035	0.16279	0.82653	-0.075986	0.15633	0.82009	0.14914	-0.061452	0.88896	-0.039034	-0.062592	0.88683	0.048813	0.04575	0.40819	0.18307	0.068393	0.38795	0.062095	0.13296	0.53584	0.082582	0.14041	0.54045	0.14735	0.14023	0.49416	0.11821	0.0034594	0.091341	0.16056	0.02877	0.094728	0.085221	0.066312	0.23719	0.14547	0.01515	0.24412	0.18748	0.038132	0.19285	0.1676	-0.065936	0.063958	0.1111	0.014495	0.030124	0.18186	0.093228	0.41362	-0.13136	0.083151	0.39515	-0.012104	0.1587	0.56586	-0.10434	0.11076	0.5488	-0.14627	0.14715	0.5108	-0.11839	0.014886	0.093251	-0.13118	0.035263	0.091239	-0.054406	0.10008	0.26335	-0.095799	0.060329	0.27079	-0.15089	0.079057	0.22488	-0.12546	0.13607	0.053178	-0.0797	-0.059256	0.054144	-0.087399	0.040112	0.021694	-0.15397	0.40439	0.033584	-0.6368	-0.40676	0.023942	-0.64956	-0.3248	0.022679	0.63897	0.4402	0.03629	0.65139	0.12908	1.1915	0.044601	0.076542	1.1914	0.24011	0.062366	1.2206	-0.13731	-0.030192	1.23	0.044698	0.063288	0.94042	-0.20675	0.085926	1.0596	-0.17822	0.1453	0.74293	-0.20228	0.14233	0.85392	-0.19472	0.2046	0.72345	-0.1935	0.070819	0.9143	0.28153	0.088238	1.032	0.26736	0.17154	0.74142	0.21866	0.12989	0.72226	0.27543	0.13795	0.84231	0.26086	0.18946	0.68714	0.26803	0.18649	0.77407	-0.15326
608	3.04	0.16282	0.82649	-0.075983	0.1563	0.82004	0.14915	-0.061455	0.88899	-0.039039	-0.062582	0.88686	0.048823	0.045738	0.40819	0.18308	0.068342	0.38793	0.062073	0.13293	0.53582	0.082581	0.14037	0.54044	0.14737	0.14021	0.49418	0.1182	0.0034706	0.091356	0.16055	0.02878	0.094694	0.085195	0.066295	0.2372	0.14547	0.015149	0.24413	0.18751	0.038106	0.19286	0.1676	-0.065961	0.063939	0.11111	0.014422	0.030142	0.18195	0.093233	0.41362	-0.13134	0.083129	0.39513	-0.012111	0.15866	0.56586	-0.10435	0.11077	0.54877	-0.14627	0.14716	0.5108	-0.11837	0.014911	0.093246	-0.13117	0.035278	0.09122	-0.054435	0.10007	0.26335	-0.095791	0.060194	0.27072	-0.15093	0.07904	0.22487	-0.12545	0.13607	0.053183	-0.079682	-0.059259	0.05414	-0.087393	0.040095	0.021705	-0.15401	0.40441	0.033563	-0.63678	-0.40676	0.023954	-0.6496	-0.3248	0.022678	0.63899	0.44021	0.036307	0.65139	0.1291	1.1915	0.044577	0.076564	1.1914	0.24009	0.0621	1.2207	-0.13746	-0.030115	1.23	0.044686	0.063306	0.94042	-0.20672	0.086014	1.0596	-0.17819	0.14529	0.74292	-0.20221	0.14242	0.85393	-0.19463	0.2047	0.72346	-0.19341	0.070817	0.91432	0.28155	0.088244	1.0321	0.26739	0.17154	0.74144	0.21866	0.12989	0.72227	0.27543	0.13795	0.84234	0.26088	0.18945	0.68715	0.26806	0.18648	0.77408	-0.1532
609	3.045	0.16273	0.82646	-0.075969	0.15628	0.82	0.14913	-0.061462	0.88898	-0.039033	-0.062592	0.88685	0.04878	0.04578	0.40817	0.18307	0.06835	0.38794	0.062079	0.13292	0.53582	0.082584	0.14036	0.54045	0.14735	0.14021	0.49417	0.11822	0.0034663	0.091333	0.16055	0.02874	0.094735	0.085198	0.06632	0.23719	0.14547	0.01513	0.24411	0.1875	0.038118	0.19284	0.1676	-0.065927	0.063936	0.1111	0.014481	0.030145	0.18195	0.093232	0.41362	-0.13135	0.083146	0.39512	-0.012112	0.15867	0.56584	-0.10434	0.11077	0.54877	-0.14627	0.14712	0.51079	-0.11837	0.014902	0.093261	-0.1312	0.035255	0.09123	-0.054437	0.1001	0.26336	-0.095793	0.06042	0.2708	-0.15087	0.079034	0.22489	-0.12544	0.13609	0.053201	-0.079689	-0.059269	0.054132	-0.087426	0.040076	0.021707	-0.15398	0.40439	0.033588	-0.63678	-0.40677	0.023939	-0.64959	-0.32482	0.022677	0.63897	0.44016	0.036283	0.65139	0.12915	1.1915	0.044591	0.07659	1.1914	0.24007	0.062138	1.2207	-0.13748	-0.030106	1.23	0.044719	0.063404	0.94043	-0.20672	0.086072	1.0596	-0.1782	0.14536	0.74293	-0.20213	0.14249	0.85394	-0.19458	0.20469	0.72345	-0.19333	0.070846	0.91437	0.28155	0.088251	1.0321	0.26739	0.17152	0.74145	0.21867	0.12989	0.7223	0.27545	0.13798	0.84236	0.26088	0.18944	0.68719	0.26808	0.1865	0.77407	-0.1531
610	3.05	0.16242	0.82643	-0.076052	0.15627	0.81998	0.14914	-0.061481	0.88901	-0.03904	-0.062635	0.8869	0.048788	0.045741	0.40817	0.18309	0.068371	0.38793	0.062068	0.13294	0.53582	0.082575	0.14034	0.54045	0.14737	0.14021	0.49416	0.11824	0.0034702	0.091331	0.16057	0.028751	0.094712	0.085197	0.06623	0.23722	0.14552	0.015145	0.24411	0.1875	0.03812	0.19285	0.16759	-0.065917	0.063945	0.1111	0.014461	0.03013	0.18195	0.093276	0.41366	-0.13134	0.083128	0.39511	-0.012119	0.15864	0.56584	-0.10435	0.11076	0.54879	-0.14626	0.14717	0.51079	-0.11839	0.014775	0.093103	-0.13108	0.035251	0.091229	-0.05445	0.10007	0.26335	-0.095816	0.060424	0.27079	-0.15089	0.07903	0.22488	-0.12545	0.13613	0.053211	-0.079678	-0.05925	0.054115	-0.087394	0.040074	0.021695	-0.154	0.40438	0.033601	-0.63677	-0.4068	0.023951	-0.64958	-0.32483	0.022669	0.63898	0.44015	0.036242	0.65137	0.12909	1.1915	0.044571	0.076601	1.1915	0.24007	0.062511	1.2207	-0.13736	-0.030074	1.23	0.044677	0.063455	0.94045	-0.20675	0.086097	1.0596	-0.17821	0.14539	0.74295	-0.20208	0.1425	0.85394	-0.19455	0.20477	0.72345	-0.19322	0.070845	0.91438	0.28158	0.088275	1.0321	0.2674	0.17157	0.74148	0.21868	0.1299	0.72235	0.27548	0.138	0.84239	0.26089	0.18943	0.6872	0.26811	0.18652	0.77407	-0.15305
611	3.055	0.1627	0.82642	-0.075948	0.15626	0.81998	0.14915	-0.061473	0.88901	-0.039041	-0.062631	0.88691	0.048786	0.045758	0.40816	0.18308	0.068367	0.38793	0.062065	0.13295	0.53582	0.082593	0.14034	0.54045	0.14738	0.14021	0.49416	0.11823	0.0034285	0.091313	0.16056	0.028726	0.094731	0.085244	0.066294	0.23719	0.14548	0.015139	0.24411	0.1875	0.038123	0.19285	0.1676	-0.065894	0.063946	0.11109	0.014477	0.03015	0.18193	0.093234	0.41362	-0.13135	0.083107	0.39512	-0.012114	0.15868	0.56586	-0.10435	0.11073	0.54879	-0.14628	0.14713	0.5108	-0.11839	0.014884	0.09326	-0.1312	0.035268	0.091233	-0.05444	0.10007	0.26333	-0.0958	0.060457	0.2708	-0.15089	0.07902	0.22489	-0.12546	0.13612	0.053209	-0.079704	-0.059283	0.054149	-0.087406	0.040114	0.021671	-0.154	0.4044	0.03357	-0.63678	-0.40678	0.023931	-0.64959	-0.32483	0.022693	0.63899	0.44017	0.036275	0.65138	0.12911	1.1916	0.044594	0.076614	1.1915	0.24006	0.062534	1.2207	-0.13737	-0.030042	1.2301	0.044657	0.063531	0.94044	-0.20676	0.086152	1.0596	-0.17823	0.14546	0.74293	-0.20202	0.14256	0.85394	-0.19451	0.20473	0.72342	-0.19318	0.070875	0.91441	0.28158	0.088287	1.0322	0.2674	0.17154	0.7415	0.21869	0.12992	0.72237	0.27551	0.13803	0.8424	0.26089	0.18942	0.68721	0.26811	0.18658	0.7741	-0.15298
